<svg width="32" height="32" viewBox="0 0 32 32" fill="none" xmlns="http://www.w3.org/2000/svg">
<path d="M0 16C0 7.16344 7.16344 0 16 0C24.8366 0 32 7.16344 32 16C32 24.8366 24.8366 32 16 32C7.16344 32 0 24.8366 0 16Z" fill="#7CB500"/>
<path d="M15.8959 23.4225C9.53301 23.4225 4.60699 28.1886 8.09621 24.4323C10.8876 21.4273 13.356 19.292 15.8959 19.292C18.4357 19.292 20.904 21.4273 23.6955 24.4323C27.1848 28.1887 22.2588 23.4225 15.8959 23.4225Z" fill="#FCFCFC"/>
<path d="M15.8925 8.5775C22.2553 8.57747 27.1813 3.81143 23.6921 7.56767C20.9007 10.5727 18.4323 12.708 15.8925 12.708C13.3526 12.708 10.8843 10.5727 8.09283 7.56766C4.6035 3.81132 9.52957 8.5775 15.8925 8.5775Z" fill="#FCFCFC"/>
<path d="M8.55198 15.9996C8.55196 9.56934 3.83591 4.59109 7.55274 8.11731C10.5263 10.9383 12.6392 13.4328 12.6392 15.9996C12.6392 18.5664 10.5263 21.0609 7.55274 23.882C3.8358 27.4083 8.55198 22.43 8.55198 15.9996Z" fill="#FCFCFC"/>
<path d="M23.4483 15.9996C23.4483 22.4299 28.1643 27.4082 24.4475 23.882C21.474 21.0609 19.3611 18.5664 19.3611 15.9996C19.3611 13.4328 21.474 10.9384 24.4475 8.1173C28.1644 4.59098 23.4483 9.56928 23.4483 15.9996Z" fill="#FCFCFC"/>
</svg>
