<svg width="512" height="512" viewBox="0 0 512 512" fill="none" xmlns="http://www.w3.org/2000/svg">
  <circle cx="256" cy="256" r="256" fill="#7CB500"/>
  <path d="M254.333 374.76C152.527 374.761 73.7108 451.017 129.538 390.918C174.201 342.837 213.695 308.672 254.333 308.672C294.971 308.672 334.464 342.836 379.127 390.918C434.956 451.019 356.139 374.76 254.333 374.76Z" fill="#FCFCFC"/>
  <path d="M254.278 137.24C356.083 137.239 434.9 60.9826 379.072 121.082C334.409 169.163 294.915 203.328 254.278 203.328C213.64 203.328 174.147 169.164 129.483 121.082C73.654 60.9809 152.471 137.24 254.278 137.24Z" fill="#FCFCFC"/>
  <path d="M136.828 255.994C136.828 153.109 61.3711 73.457 120.84 129.876C168.417 175.013 202.223 214.925 202.223 255.994C202.223 297.062 168.417 336.974 120.84 382.111C61.3694 438.532 136.828 358.879 136.828 255.994Z" fill="#FCFCFC"/>
  <path d="M375.172 255.995C375.172 358.879 450.629 438.531 391.16 382.112C343.583 336.976 309.777 297.063 309.777 255.995C309.777 214.926 343.583 175.014 391.16 129.877C450.631 73.4563 375.172 153.109 375.172 255.995Z" fill="#FCFCFC"/>
</svg>
