<svg width="60" height="60" viewBox="0 0 60 60" fill="none" xmlns="http://www.w3.org/2000/svg">
<g clip-path="url(#clip0_3817_219384)">
<path d="M27.7285 0H32.2817C32.5639 0.165475 33.0809 0.205095 33.4055 0.228636C43.3877 0.952535 52.5127 7.85678 56.8305 16.5456C57.97 18.8415 58.8191 21.2705 59.3581 23.7763C59.7665 25.7672 59.8404 27.7429 59.8808 29.7679C59.9828 34.8711 58.8091 39.6191 56.3741 44.1206C53.4121 49.5164 48.8764 53.8817 43.3714 56.6354C36.112 60.2332 27.7074 60.7471 20.0637 58.0607C12.8657 55.5791 6.6301 50.1266 3.24411 43.2877C0.925245 38.7022 0.113801 34.2921 0.220053 29.1835C0.314969 24.62 1.10192 20.678 3.13813 16.5337C6.84256 9.11865 13.4541 3.57019 21.3995 1.2087C23.2397 0.643623 24.9514 0.324858 26.8628 0.189397C27.0984 0.172699 27.5248 0.113292 27.7285 0Z" fill="#27A27C"/>
<path d="M15.6316 14.5908L43.7821 14.5961C43.7757 17.0259 43.7382 19.5327 43.7861 21.9566C43.1356 21.8795 41.1798 21.9265 40.4648 21.9264L33.6489 21.9131C33.6606 23.3558 33.6599 24.7986 33.6469 26.2412C36.7854 26.4084 44.7899 27.0291 47.057 29.0393C47.3975 29.3412 47.7065 29.8619 47.7219 30.3261C47.7353 30.7278 47.4388 31.1295 47.1727 31.4061C45.045 33.6184 36.787 34.1702 33.6439 34.2381L33.6647 37.0066L33.6525 43.8897C33.6514 45.0365 33.6053 46.5702 33.6733 47.6932C32.8104 47.6098 31.5769 47.647 30.6748 47.6476L25.7857 47.6374L25.7833 34.2206C22.9544 34.2586 15.1418 33.4078 13.0179 31.5542C12.6672 31.2481 12.4054 30.855 12.376 30.3798C12.3487 29.9405 12.5134 29.5441 12.8069 29.2218C14.7466 27.0913 22.8229 26.4512 25.7821 26.3121L25.7816 21.921C22.5458 22.0079 18.884 21.9378 15.6173 21.9177C15.5956 19.7663 15.5127 16.6855 15.6316 14.5908Z" fill="#FEFEFE"/>
<path d="M33.6667 27.2651C34.9868 27.4443 36.4072 27.5631 37.7341 27.6734C39.0912 27.7861 46.1509 28.8792 46.3857 30.2994C46.1215 31.796 37.6953 32.7793 36.3439 32.8702C33.9758 33.0296 31.4232 33.0942 29.0435 33.0615C26.774 33.0303 24.3146 33.002 22.0764 32.675C19.7279 32.3728 15.3181 31.9369 13.5566 30.3672C13.5948 30.2999 13.6359 30.2343 13.6798 30.1706C14.662 28.7348 20.5169 27.8836 22.3039 27.6901C23.3013 27.5821 24.8213 27.5249 25.7861 27.3413L25.787 31.8771C28.4412 32.021 31.0285 31.9862 33.682 31.9203C33.6292 30.8343 33.6763 29.7134 33.6462 28.6248C33.6342 28.1897 33.6295 27.6963 33.6667 27.2651Z" fill="#27A27C"/>
</g>
<defs>
<clipPath id="clip0_3817_219384">
<rect width="60" height="60" fill="white"/>
</clipPath>
</defs>
</svg>
